FFmpeg version SVN-r25716, Copyright (c) 2000-2010 the FFmpeg developers  built on Nov 10 2010 12:23:18 with gcc 4.1.2 20080704 (Red Hat 4.1.2-48)  configuration: --enable-libmp3lame --enable-shared --disable-mmx --arch=x86_64  libavutil     50.33. 0 / 50.33. 0  libavcore      0.12. 1 /  0.12. 1  libavcodec    52.94. 4 / 52.94. 4  libavformat   52.84. 0 / 52.84. 0  libavdevice   52. 2. 2 / 52. 2. 2  libavfilter    1.59. 0 /  1.59. 0  libswscale     0.12. 0 /  0.12. 0Seems stream 0 codec frame rate differs from container frame rate: 1200.00 (1200/1) -> 10.00 (10/1)Input #0, mov,mp4,m4a,3gp,3g2,mj2, from '/RAID10/data/converted_video_files/42167.mov':  Metadata:    major_brand     : qt      minor_version   : 537199360    compatible_brands: qt    Duration: 00:00:25.20, start: 0.000000, bitrate: 1763 kb/s    Stream #0.0(eng): Video: h264, yuv420p, 720x480, 1762 kb/s, PAR 10:11 DAR 15:11, 10 fps, 10 tbr, 600 tbn, 1200 tbc[buffer @ 0xeeb0470] w:720 h:480 pixfmt:yuv420pOutput #0, flv, to '/RAID10/data/converted_video_files/42167.flv':  Metadata:    encoder         : Lavf52.84.0    Stream #0.0(eng): Video: flv, yuv420p, 720x480 [PAR 10:11 DAR 15:11], q=2-31, 600 kb/s, 1k tbn, 24 tbcStream mapping:  Stream #0.0 -> #0.0Press [q] to stop encodingframe=   26 fps=  0 q=6.7 size=     210kB time=2.54 bitrate= 678.4kbits/s    frame=   52 fps= 50 q=7.5 size=     340kB time=5.12 bitrate= 543.0kbits/s    frame=   79 fps= 51 q=7.9 size=     487kB time=7.83 bitrate= 509.6kbits/s    frame=  110 fps= 54 q=7.6 size=     667kB time=10.96 bitrate= 498.3kbits/s    frame=  139 fps= 54 q=6.6 size=     825kB time=13.83 bitrate= 488.2kbits/s    frame=  166 fps= 53 q=6.2 size=     978kB time=16.54 bitrate= 484.6kbits/s    frame=  188 fps= 52 q=5.4 size=    1102kB time=18.75 bitrate= 481.7kbits/s    frame=  215 fps= 52 q=6.4 size=    1276kB time=21.46 bitrate= 487.2kbits/s    frame=  242 fps= 52 q=6.4 size=    1476kB time=24.12 bitrate= 501.1kbits/s    frame=  252 fps= 52 q=5.1 Lsize=    1548kB time=25.12 bitrate= 504.8kbits/s    video:1544kB audio:0kB global headers:0kB muxing overhead 0.268307%